<?xml version="1.0" standalone="no"?>
<!DOCTYPE svg PUBLIC "-//W3C//DTD SVG 20010904//EN"
 "http://www.w3.org/TR/2001/REC-SVG-20010904/DTD/svg10.dtd">
<svg version="1.0" xmlns="http://www.w3.org/2000/svg"
 width="421.000000pt" height="421.000000pt" viewBox="0 0 421.000000 421.000000"
 preserveAspectRatio="xMidYMid meet">
<metadata>
Created by potrace 1.11, written by Peter Selinger 2001-2013
</metadata>
<g transform="translate(0.000000,421.000000) scale(0.100000,-0.100000)"
fill="#000000" stroke="none">
<path d="M2015 4166 c-26 -25 -33 -40 -34 -84 -1 -22 -1 -22 -28 -5 -16 10
-40 30 -55 46 -21 22 -33 27 -50 22 -33 -11 -48 -25 -48 -47 0 -10 -6 -18 -12
-16 -43 8 -77 -35 -69 -87 2 -11 0 -17 -4 -13 -4 4 -20 1 -36 -8 -25 -12 -34
-28 -31 -55 1 -3 -13 -6 -30 -7 -42 -1 -67 -26 -63 -64 3 -17 10 -36 16 -44
12 -14 0 -19 -41 -16 -30 1 -46 -17 -48 -57 -2 -29 2 -42 15 -49 15 -9 16 -13
3 -39 -7 -15 -14 -32 -14 -38 -1 -5 -7 -10 -14 -10 -17 0 -32 -25 -25 -41 3
-8 0 -28 -6 -46 -9 -25 -8 -36 4 -54 13 -20 12 -25 -8 -51 -12 -15 -26 -33
-32 -39 -5 -6 -19 -27 -30 -47 -11 -20 -23 -37 -27 -37 -5 0 -8 -6 -8 -14 0
-7 -9 -25 -20 -38 -10 -14 -16 -28 -13 -32 3 -3 1 -6 -6 -6 -7 0 -9 -4 -6 -10
3 -5 1 -10 -5 -10 -6 0 -8 -4 -5 -10 3 -5 1 -10 -4 -10 -6 0 -10 -3 -9 -7 1
-5 -7 -28 -18 -53 -11 -25 -29 -65 -40 -90 -10 -25 -26 -51 -36 -58 -37 -27
-88 -80 -88 -91 0 -6 -4 -11 -8 -11 -9 0 -40 -66 -47 -99 -3 -12 -7 -31 -10
-43 -22 -99 -28 -147 -29 -245 -1 -79 2 -95 20 -120 22 -30 20 -45 -10 -80
-22 -25 -33 -39 -66 -88 -19 -27 -37 -51 -42 -53 -4 -2 -8 -8 -8 -13 0 -6 -9
-19 -20 -31 -11 -12 -20 -28 -20 -35 0 -7 -4 -13 -8 -13 -4 0 -21 -26 -37 -57
-17 -32 -34 -61 -38 -64 -5 -3 -10 -12 -11 -20 -2 -8 -8 -27 -15 -44 -7 -16
-12 -30 -11 -30 1 0 -4 -13 -10 -30 -18 -47 -27 -89 -37 -170 -9 -78 -9 -237
1 -300 11 -78 63 -224 103 -290 20 -33 58 -81 84 -107 27 -26 49 -51 49 -55 0
-5 -14 -17 -30 -28 -16 -11 -30 -23 -30 -27 0 -4 -11 -18 -25 -32 -14 -14 -25
-29 -25 -35 0 -5 -6 -16 -13 -23 -17 -17 -41 -70 -65 -143 -22 -68 -55 -197
-68 -267 l-5 -26 167 -2 c92 0 172 -4 178 -7 14 -9 2166 -10 2193 -1 12 4 99
8 193 9 l171 2 -7 41 c-10 60 -61 243 -86 306 -27 70 -62 125 -108 171 l-36
37 81 58 c92 67 212 184 225 219 18 47 6 54 -76 49 -67 -4 -73 -3 -67 13 3 10
10 23 15 29 5 7 11 20 13 30 2 11 13 43 24 71 12 29 19 53 16 53 -3 0 -1 8 4
17 20 38 36 171 35 293 -1 126 -20 205 -74 316 -41 84 -93 144 -250 286 -51
46 -71 70 -63 75 31 21 31 129 -1 285 -31 151 -61 216 -134 287 -46 44 -63 70
-81 121 -62 172 -155 337 -249 440 -30 33 -47 59 -42 65 16 19 19 63 6 80 -15
20 -79 45 -118 45 -37 0 -35 15 3 30 69 29 78 74 27 133 -26 30 -40 37 -68 37
-19 0 -30 4 -24 8 19 12 35 52 29 71 -9 28 -62 71 -89 71 -14 0 -31 -6 -38
-12 -7 -7 -25 -14 -41 -16 l-27 -3 19 34 c24 42 21 92 -5 112 -33 25 -61 18
-96 -25 l-32 -41 -13 26 c-8 14 -19 25 -26 26 -7 0 -20 2 -30 4 -9 2 -24 -3
-32 -12 -8 -8 -16 -12 -16 -9 -1 3 -3 11 -4 16 -1 6 -3 19 -4 29 -3 51 -63 66
-106 27z"/>
</g>
</svg>
